<svg width="40" height="40" viewBox="0 0 40 40" fill="none" xmlns="http://www.w3.org/2000/svg">
<rect x="0.5" y="0.5" width="39" height="39" rx="3.5" stroke="url(#paint0_linear_4648_9459)"/>
<path d="M9 13H31C31.2652 13 31.5196 13.1054 31.7071 13.2929C31.8946 13.4804 32 13.7348 32 14C32 14.2652 31.8946 14.5196 31.7071 14.7071C31.5196 14.8946 31.2652 15 31 15H9C8.73478 15 8.48043 14.8946 8.29289 14.7071C8.10536 14.5196 8 14.2652 8 14C8 13.7348 8.10536 13.4804 8.29289 13.2929C8.48043 13.1054 8.73478 13 9 13ZM12 20C12 19.7348 12.1054 19.4804 12.2929 19.2929C12.4804 19.1054 12.7348 19 13 19H27C27.2652 19 27.5196 19.1054 27.7071 19.2929C27.8946 19.4804 28 19.7348 28 20C28 20.2652 27.8946 20.5196 27.7071 20.7071C27.5196 20.8946 27.2652 21 27 21H13C12.7348 21 12.4804 20.8946 12.2929 20.7071C12.1054 20.5196 12 20.2652 12 20ZM16 26C16 25.7348 16.1054 25.4804 16.2929 25.2929C16.4804 25.1054 16.7348 25 17 25H23C23.2652 25 23.5196 25.1054 23.7071 25.2929C23.8946 25.4804 24 25.7348 24 26C24 26.2652 23.8946 26.5196 23.7071 26.7071C23.5196 26.8946 23.2652 27 23 27H17C16.7348 27 16.4804 26.8946 16.2929 26.7071C16.1054 26.5196 16 26.2652 16 26Z" fill="url(#paint1_linear_4648_9459)"/>
<defs>
<linearGradient id="paint0_linear_4648_9459" x1="0" y1="20" x2="40" y2="20" gradientUnits="userSpaceOnUse">
<stop stop-color="#FF6169"/>
<stop offset="1" stop-color="#FFA752"/>
</linearGradient>
<linearGradient id="paint1_linear_4648_9459" x1="20" y1="13" x2="20" y2="27" gradientUnits="userSpaceOnUse">
<stop stop-color="#FF6169"/>
<stop offset="1" stop-color="#FFA752"/>
</linearGradient>
</defs>
</svg>
